# xmcd CD database file
#
# Track frame offsets:
#	150
#	19517
#	37031
#	74559
#	112052
#
# Disc length: 1874 seconds
#
# Revision: 0
# Processed by: cddbd v1.5.1PL0 Copyright (c) Steve Scherf et al.
# Submitted via: CDex 1.51
#
DISCID=42075005
DTITLE=Ciara Feat. Ludacris - Oh
DYEAR=2005
DGENRE=R&B
TTITLE0=Oh-Album Version-
TTITLE1=Oh-Kardinal Beats Radio Edit-
TTITLE2=Oh-Bimbo Jones Remix-
TTITLE3=Oh-Bimbo Jones Dub-
TTITLE4=Oh-DJ Volume 'South Beach' Remix-
EXTD=YEAR: 2005
EXTT0=
EXTT1=
EXTT2=
EXTT3=
EXTT4=
PLAYORDER=
